# xmcd
#
# Track frame offsets:
#	187
#	18000
#	36287
#	55302
#	73212
#	92967
#	110850
#	130612
#	152102
#	172837
#	192637
#
# Disc length: 2819 seconds
#
# Revision: 1
# Processed by: cddbd v1.5PL3 Copyright (c) Steve Scherf et al.
# Submitted via: CDex 1.50Beta5
#
DISCID=980b010b
DTITLE=Pink Sapphire - From Me To You
DYEAR=1900
DGENRE=Pop
TTITLE0=From Me To You (あきらめちゃダメ!)
TTITLE1=抱きしめたい
TTITLE2=Love Me Do
TTITLE3=Hello Goodbye
TTITLE4=雨に濡れた日
TTITLE5=Crystal Pierce
TTITLE6=Alright
TTITLE7=Stand Up
TTITLE8=Fallen Angel
TTITLE9=Hold Me
TTITLE10=愛こそすべて
EXTD=
EXTT0=
EXTT1=
EXTT2=
EXTT3=
EXTT4=
EXTT5=
EXTT6=
EXTT7=
EXTT8=
EXTT9=
EXTT10=
PLAYORDER=
